<?xml version="1.0" standalone="no"?>
<!DOCTYPE svg PUBLIC "-//W3C//DTD SVG 20010904//EN"
 "http://www.w3.org/TR/2001/REC-SVG-20010904/DTD/svg10.dtd">
<svg version="1.0" xmlns="http://www.w3.org/2000/svg"
 width="1024.000000pt" height="1024.000000pt" viewBox="0 0 1024.000000 1024.000000"
 preserveAspectRatio="xMidYMid meet">

<g transform="translate(0.000000,1024.000000) scale(0.100000,-0.100000)"
fill="#003932" stroke="none">
<path d="M3136 7473 c-257 -54 -450 -258 -502 -531 -11 -59 -14 -202 -14 -703
l0 -628 78 35 c42 19 112 56 155 81 l77 47 0 529 c0 572 2 602 55 693 29 49
100 116 152 142 99 51 114 52 624 52 435 0 482 2 536 18 62 20 102 42 149 82
31 27 174 187 174 195 0 3 -318 5 -707 4 -582 -1 -720 -4 -777 -16z"/>
<path d="M5069 7331 c-26 -18 -80 -77 -134 -147 -50 -64 -159 -203 -243 -307
-84 -105 -151 -193 -150 -197 2 -4 38 -37 80 -74 42 -36 80 -75 83 -86 10 -31
-4 -78 -28 -95 -44 -31 -81 -20 -166 50 -44 36 -84 64 -88 64 -4 -1 -34 -30
-67 -65 l-58 -63 38 -33 c86 -73 104 -95 104 -127 0 -58 -75 -108 -123 -82
-12 6 -51 36 -86 66 l-65 55 -56 -53 -57 -52 58 -57 c32 -31 61 -68 64 -80 10
-39 -11 -77 -52 -94 -45 -19 -64 -12 -139 52 -29 25 -57 44 -62 42 -5 -1 -37
-29 -71 -60 l-63 -57 51 -49 c59 -58 66 -93 26 -136 -39 -42 -87 -36 -155 18
l-55 44 -40 -32 c-330 -269 -645 -415 -1093 -506 -82 -16 -165 -36 -184 -45
-90 -37 -138 -110 -138 -210 0 -211 238 -363 735 -470 185 -40 358 -57 595
-58 286 -2 493 26 875 118 407 98 700 210 1288 492 698 334 821 387 1039 447
184 51 254 59 435 53 171 -5 238 -21 356 -84 66 -36 164 -133 199 -199 32 -60
58 -152 58 -209 0 -71 15 -70 33 3 27 111 37 200 37 337 0 337 -85 662 -285
1080 -151 316 -172 376 -201 575 -17 123 -38 176 -80 209 -58 45 -151 35 -212
-22 -18 -18 -59 -72 -90 -122 -232 -372 -420 -482 -826 -483 -284 -1 -508 70
-659 208 -80 74 -122 150 -147 272 -34 159 -68 198 -177 198 -49 0 -67 -5
-104 -29z m-108 -952 c11 -5 151 -114 312 -241 161 -126 369 -290 462 -364 94
-74 181 -150 194 -169 32 -47 26 -118 -13 -152 -29 -25 -84 -38 -120 -29 -13
3 -91 59 -173 124 -215 171 -512 406 -633 499 -149 116 -181 151 -187 205 -9
89 86 166 158 127z m-399 -347 c15 -9 80 -60 145 -113 173 -140 559 -447 627
-499 80 -60 108 -100 108 -149 -1 -51 -15 -77 -55 -101 -42 -26 -92 -25 -130
2 -18 12 -117 89 -222 172 -450 354 -626 500 -641 529 -39 74 21 177 103 177
21 0 50 -8 65 -18z m-395 -339 c26 -20 118 -93 203 -163 85 -69 195 -157 244
-195 278 -217 319 -262 297 -328 -28 -82 -122 -122 -184 -77 -103 75 -718 573
-736 596 -51 65 -9 175 74 197 41 10 55 6 102 -30z"/>
<path d="M6853 5255 c-190 -34 -430 -126 -873 -333 -680 -317 -1077 -458
-1640 -581 -348 -76 -629 -95 -1020 -71 -189 12 -362 38 -503 75 -163 42 -139
25 56 -41 614 -207 1111 -214 1917 -28 504 117 1035 300 1731 597 97 42 192
79 212 82 66 13 147 -56 147 -126 0 -36 -40 -99 -83 -130 -78 -58 -342 -167
-575 -238 -53 -16 -171 -52 -262 -80 -165 -50 -477 -134 -875 -236 -638 -164
-934 -213 -1350 -222 -286 -6 -477 9 -672 53 -116 25 -291 87 -392 138 l-51
26 0 -233 c0 -263 10 -321 78 -452 51 -100 174 -220 273 -268 146 -72 24 -68
2099 -65 1758 3 1868 4 1925 21 233 69 376 204 457 428 22 62 23 79 28 454 3
215 4 392 3 394 -1 2 -36 -26 -77 -62 -163 -142 -319 -227 -584 -318 -87 -29
-433 -111 -542 -128 -109 -16 -143 -22 -190 -31 -25 -4 -131 -22 -236 -39
-105 -17 -215 -36 -245 -41 -30 -6 -114 -22 -188 -36 -151 -28 -437 -91 -746
-165 -755 -181 -746 -180 -1045 -186 -129 -3 -232 -3 -229 1 3 3 41 12 85 21
138 26 326 82 844 252 732 239 916 290 1490 418 434 96 582 133 745 188 425
144 640 294 747 522 76 163 49 322 -69 399 -81 53 -234 69 -390 41z"/>
</g>
</svg>
